<svg xmlns="http://www.w3.org/2000/svg" viewBox="0 0 1200 900" role="img" aria-labelledby="title desc">
  <title id="title">Architect Kit boxed gift mockup</title>
  <desc id="desc">A premium black architect kit with tools arranged in an open rigid box.</desc>
  <defs>
    <linearGradient id="table" x1="0" y1="0" x2="1" y2="1">
      <stop offset="0" stop-color="#54514b"/>
      <stop offset="1" stop-color="#181716"/>
    </linearGradient>
    <linearGradient id="box" x1="0" y1="0" x2="0" y2="1">
      <stop offset="0" stop-color="#303030"/>
      <stop offset="1" stop-color="#080808"/>
    </linearGradient>
    <linearGradient id="foam" x1="0" y1="0" x2="1" y2="1">
      <stop offset="0" stop-color="#1d1d1c"/>
      <stop offset="1" stop-color="#070707"/>
    </linearGradient>
    <filter id="shadow" x="-20%" y="-20%" width="140%" height="140%">
      <feDropShadow dx="0" dy="18" stdDeviation="20" flood-color="#000" flood-opacity=".45"/>
    </filter>
    <pattern id="blueprint" width="90" height="90" patternUnits="userSpaceOnUse">
      <path d="M0 18H90M0 54H90M18 0V90M54 0V90" stroke="#aab2bc" stroke-width="1" opacity=".18"/>
      <path d="M12 72L72 12M34 82L82 34" stroke="#aab2bc" stroke-width="1" opacity=".12"/>
    </pattern>
  </defs>
  <rect width="1200" height="900" fill="url(#table)"/>
  <path d="M832 0h368v420H832z" fill="#e9e5dc"/>
  <path d="M832 0h368v420H832z" fill="url(#blueprint)"/>
  <rect x="845" y="235" width="285" height="205" rx="18" fill="#111" filter="url(#shadow)" transform="rotate(8 987 337)"/>
  <path d="M915 310h115l40 44v56H915z" fill="none" stroke="#c69a54" stroke-width="5" transform="rotate(8 987 337)"/>
  <path d="M945 365h100M945 390h68" stroke="#c69a54" stroke-width="5" stroke-linecap="round" transform="rotate(8 987 337)"/>

  <g filter="url(#shadow)">
    <path d="M80 88h760c34 0 62 28 62 62v210H80z" fill="url(#box)"/>
    <path d="M80 360h902c38 0 68 30 68 68v382c0 24-20 44-44 44H124c-24 0-44-20-44-44z" fill="#101010"/>
    <path d="M120 400h900v390H120z" fill="url(#foam)"/>
    <path d="M80 360h970v46H80z" fill="#070707"/>
  </g>

  <g fill="#c69a54" font-family="Arial, Helvetica, sans-serif" text-anchor="middle">
    <text x="470" y="145" font-size="46" font-weight="700" letter-spacing="8">ARCHITECT KIT</text>
    <text x="470" y="185" font-size="18" letter-spacing="5">DESIGN • PLAN • CREATE</text>
  </g>
  <g stroke="#c69a54" stroke-width="3" fill="none" opacity=".9">
    <path d="M160 240l28-52 17 10-30 52z"/>
    <path d="M285 245l45-62 20 14-45 62z"/>
    <path d="M435 245l28-50 16 9-28 50z"/>
    <path d="M565 238h35v42h-35z"/>
    <path d="M720 255l24-24 24 24-24 24z"/>
  </g>
  <g fill="#d8bd87" font-family="Arial, Helvetica, sans-serif" font-size="12" text-anchor="middle">
    <text x="175" y="306">MECHANICAL</text><text x="175" y="324">PENCIL</text>
    <text x="318" y="306">SCALE RULER</text>
    <text x="460" y="306">FINE LINERS</text>
    <text x="583" y="306">NOTEBOOK</text>
    <text x="744" y="306">ERASER</text>
  </g>

  <g>
    <rect x="145" y="465" width="62" height="245" rx="28" fill="#050505" stroke="#414141" stroke-width="3"/>
    <circle cx="176" cy="492" r="16" fill="#d7d7d7"/>
    <path d="M174 710l-14 48h32z" fill="#bfc2c4"/>
    <rect x="270" y="455" width="68" height="300" rx="6" fill="#d9d7cf" stroke="#7b7a75" stroke-width="2"/>
    <g stroke="#262626" stroke-width="2">
      <path d="M282 478h24M282 505h14M282 532h24M282 559h14M282 586h24M282 613h14M282 640h24M282 667h14M282 694h24"/>
    </g>
    <path d="M410 750L494 455L556 750z" fill="#e7dfc8" stroke="#6b624b" stroke-width="3"/>
    <path d="M452 750l42-205l42 205" stroke="#b59a62" stroke-width="3" fill="none"/>
    <g>
      <rect x="610" y="480" width="36" height="255" rx="16" fill="#070707" stroke="#313131" stroke-width="3"/>
      <rect x="660" y="480" width="36" height="255" rx="16" fill="#080808" stroke="#313131" stroke-width="3"/>
      <rect x="710" y="480" width="36" height="255" rx="16" fill="#080808" stroke="#313131" stroke-width="3"/>
      <text x="628" y="625" transform="rotate(90 628 625)" fill="#d8d8d8" font-size="16" font-family="Arial">0.3</text>
      <text x="678" y="625" transform="rotate(90 678 625)" fill="#d8d8d8" font-size="16" font-family="Arial">0.5</text>
      <text x="728" y="625" transform="rotate(90 728 625)" fill="#d8d8d8" font-size="16" font-family="Arial">0.8</text>
    </g>
    <rect x="815" y="470" width="160" height="260" rx="18" fill="#161616" stroke="#323232" stroke-width="4"/>
    <rect x="960" y="470" width="12" height="260" fill="#050505"/>
    <text x="895" y="575" fill="#c69a54" font-family="Arial" font-size="18" text-anchor="middle" letter-spacing="2">IDEAS</text>
    <text x="895" y="606" fill="#c69a54" font-family="Arial" font-size="18" text-anchor="middle" letter-spacing="2">PLANS</text>
    <text x="895" y="637" fill="#c69a54" font-family="Arial" font-size="18" text-anchor="middle" letter-spacing="2">IMPACT</text>
    <rect x="145" y="785" width="120" height="45" rx="8" fill="#ded8c7"/>
    <text x="205" y="813" fill="#8d6b38" font-family="Arial" font-weight="700" font-size="16" text-anchor="middle">ARCHITECT</text>
    <rect x="380" y="780" width="70" height="50" rx="8" fill="#111" stroke="#888" stroke-width="3"/>
    <circle cx="415" cy="805" r="11" fill="#d5d5d5"/>
    <rect x="520" y="780" width="135" height="50" rx="10" fill="#080808" stroke="#626262" stroke-width="3"/>
    <circle cx="553" cy="805" r="22" fill="none" stroke="#e7e7e7" stroke-width="8"/>
    <text x="612" y="801" fill="#c69a54" font-family="Arial" font-size="13" font-weight="700" text-anchor="middle">DESIGN</text>
    <text x="612" y="817" fill="#c69a54" font-family="Arial" font-size="13" font-weight="700" text-anchor="middle">SAVE</text>
  </g>
</svg>
