<svg xmlns="http://www.w3.org/2000/svg" viewBox="0 0 1200 900" role="img" aria-labelledby="title desc">
  <title id="title">Mason alignment kit boxed mockup</title>
  <desc id="desc">A kraft cardboard mason alignment kit with level, plumb bob, string line, measuring tape, and square.</desc>
  <defs>
    <linearGradient id="bg" x1="0" y1="0" x2="1" y2="1">
      <stop offset="0" stop-color="#4a4944"/>
      <stop offset="1" stop-color="#191918"/>
    </linearGradient>
    <linearGradient id="card" x1="0" y1="0" x2="0" y2="1">
      <stop offset="0" stop-color="#bf8951"/>
      <stop offset="1" stop-color="#8e5b2d"/>
    </linearGradient>
    <linearGradient id="tray" x1="0" y1="0" x2="1" y2="1">
      <stop offset="0" stop-color="#c49a6b"/>
      <stop offset="1" stop-color="#a5733f"/>
    </linearGradient>
    <filter id="shadow" x="-20%" y="-20%" width="140%" height="140%">
      <feDropShadow dx="0" dy="16" stdDeviation="18" flood-color="#000" flood-opacity=".5"/>
    </filter>
  </defs>
  <rect width="1200" height="900" fill="url(#bg)"/>
  <g filter="url(#shadow)">
    <path d="M70 72h1060c30 0 54 24 54 54v302H70z" fill="url(#card)"/>
    <path d="M70 420h1060c30 0 54 24 54 54v335c0 24-20 44-44 44H114c-24 0-44-20-44-44z" fill="#b47b42"/>
    <path d="M118 465h964v325H118z" fill="url(#tray)"/>
    <path d="M70 420h1114v45H70z" fill="#7c4d27"/>
  </g>
  <g fill="#202020" font-family="Arial, Helvetica, sans-serif" text-anchor="middle">
    <text x="600" y="145" font-size="62" font-weight="900" letter-spacing="2">MASON'S</text>
    <text x="600" y="210" font-size="62" font-weight="900" letter-spacing="2">ALIGNMENT KIT</text>
    <text x="600" y="248" font-size="22" font-weight="700">Essential Tools for Accurate Masonry Work</text>
  </g>
  <path d="M170 270h860" stroke="#29231b" stroke-width="3"/>
  <g stroke="#29231b" stroke-width="3" fill="none">
    <path d="M170 300h120l20 26-20 26H170zM195 325h80"/>
    <path d="M350 307l25-35 25 35-25 62zM375 272v-24"/>
    <path d="M500 310c45-30 80-30 125 0v45c-45-30-80-30-125 0zM498 332h127"/>
    <path d="M705 300a45 45 0 1 0 0 90a45 45 0 1 0 0-90zM705 320a25 25 0 1 0 0 50a25 25 0 1 0 0-50z"/>
    <path d="M830 290h40v95h120v34H830z"/>
  </g>
  <g fill="#25211a" font-family="Arial" text-anchor="middle">
    <text x="230" y="392" font-size="16" font-weight="800">SPIRIT LEVEL</text>
    <text x="375" y="392" font-size="16" font-weight="800">PLUMB BOB</text>
    <text x="563" y="392" font-size="16" font-weight="800">MASON'S LINE</text>
    <text x="705" y="392" font-size="16" font-weight="800">MEASURING TAPE</text>
    <text x="910" y="392" font-size="16" font-weight="800">SQUARE</text>
  </g>

  <g>
    <rect x="145" y="500" width="910" height="62" rx="18" fill="#f0b600" stroke="#2b2416" stroke-width="6"/>
    <rect x="168" y="512" width="80" height="38" rx="10" fill="#202020"/>
    <rect x="950" y="512" width="80" height="38" rx="10" fill="#202020"/>
    <circle cx="475" cy="531" r="24" fill="#1f1f1f"/>
    <circle cx="475" cy="531" r="15" fill="#4aad38"/>
    <rect x="455" y="525" width="40" height="12" rx="6" fill="#93e46c"/>
    <circle cx="855" cy="531" r="24" fill="#1f1f1f"/>
    <circle cx="855" cy="531" r="15" fill="#4aad38"/>
    <rect x="835" y="525" width="40" height="12" rx="6" fill="#93e46c"/>
    <text x="620" y="540" fill="#2c2416" font-family="Arial" font-size="26" font-weight="900">60 cm</text>
  </g>

  <g>
    <rect x="130" y="610" width="205" height="220" rx="10" fill="#9c6d3c"/>
    <text x="232" y="640" fill="#1f1b16" font-family="Arial" font-size="19" font-weight="900" text-anchor="middle">PLUMB BOB</text>
    <path d="M220 675l45 0l-22 102z" fill="#c9c5bb" stroke="#282828" stroke-width="4"/>
    <ellipse cx="242" cy="675" rx="24" ry="12" fill="#555"/>
    <path d="M260 680c60 40 55 110 10 135M260 690c37 32 35 78 7 105" stroke="#f1eadb" stroke-width="7" fill="none" stroke-linecap="round"/>

    <rect x="372" y="610" width="320" height="170" rx="10" fill="#a97842"/>
    <text x="532" y="640" fill="#1f1b16" font-family="Arial" font-size="19" font-weight="900" text-anchor="middle">MASON'S LINE</text>
    <rect x="445" y="690" width="175" height="70" rx="34" fill="#4b3624"/>
    <path d="M465 700c34-20 78-20 112 0c-34 20-78 20-112 0z" fill="#f0e8d7"/>
    <path d="M470 715h115M468 730h118M470 745h115" stroke="#d9cab2" stroke-width="5"/>

    <rect x="730" y="610" width="240" height="205" rx="10" fill="#a97842"/>
    <text x="850" y="640" fill="#1f1b16" font-family="Arial" font-size="19" font-weight="900" text-anchor="middle">MEASURING TAPE</text>
    <circle cx="850" cy="720" r="72" fill="#1d1d1d"/>
    <circle cx="850" cy="720" r="56" fill="#f0b600"/>
    <circle cx="850" cy="720" r="38" fill="#4a4a4a"/>
    <text x="850" y="714" fill="#fff" font-family="Arial" font-size="34" font-weight="900" text-anchor="middle">5m</text>
    <text x="850" y="740" fill="#fff" font-family="Arial" font-size="19" font-weight="700" text-anchor="middle">x19mm</text>
    <path d="M915 765c55 5 66 43 82 58" stroke="#171717" stroke-width="12" fill="none" stroke-linecap="round"/>

    <rect x="362" y="805" width="525" height="45" rx="8" fill="#b7b7ad" stroke="#272727" stroke-width="4"/>
    <g stroke="#333" stroke-width="2">
      <path d="M390 812v30M430 812v18M470 812v30M510 812v18M550 812v30M590 812v18M630 812v30M670 812v18M710 812v30M750 812v18M790 812v30M830 812v18"/>
    </g>
    <text x="625" y="795" fill="#1f1b16" font-family="Arial" font-size="19" font-weight="900" text-anchor="middle">SQUARE</text>
    <rect x="350" y="790" width="72" height="72" rx="8" fill="#171717"/>
    <path d="M360 805l50 40M410 805l-50 40" stroke="#555" stroke-width="5"/>
  </g>
</svg>
